<?xml version="1.0" encoding="UTF-8"?>
<svg id="Layer_1" data-name="Layer 1" xmlns="http://www.w3.org/2000/svg" viewBox="0 0 1334.12 297.88">
  <defs>
    <style>
      .cls-1 {
        fill: #bd9cde;
      }
    </style>
  </defs>
  <path class="cls-1" d="m1317.62,90.56c-7.06,0-14.72,3.2-22.97,9.6,8.67,3.48,13,13.86,13,31.15,0,24.33-4.08,45.78-12.25,64.35-8.17,18.57-17.64,27.85-28.4,27.85-11.68,0-17.52-12.76-17.52-38.28,0-9.06.32-17.2.96-24.42l.82-9.33c.37-3.38.91-7.27,1.65-11.66,3.2-18.11,4.8-28.13,4.8-30.05,0-6.04-3.98-9.06-11.94-9.06-4.21,0-10.29,1.46-18.25,4.39.09,2.2.14,3.7.14,4.53,0,11.16-4.66,26.6-13.99,46.31-9.33,19.71-20.72,38.26-34.17,55.64-2.55-41.44-7.25-73.66-14.08-96.66-6.84-23-15.18-34.51-25.02-34.51-5.43,0-12.38,1.88-20.86,5.63,7.41,8.23,13.89,21.35,19.44,39.36-7.27,2.75-14.21,4.13-20.81,4.13-16.46,0-32.29-5.17-47.47-15.5-14.82-21.04-33.39-32.47-55.71-34.3-3.02,4.03-4.53,8.23-4.53,12.62,0,2.84,1.14,6.31,3.43,10.43-3.48-.82-6.77-1.23-9.88-1.23-20.31,0-37.94,7.82-52.89,23.46-12.1,12.65-19.3,27.16-21.61,43.53-9.95,14.55-17.89,25.13-23.81,31.73-11.12,12.4-22.16,18.59-33.14,18.59s-17.01-7.73-17.01-23.19c0-5.58,1.42-15.78,4.25-30.6L891.63,0c-10.14,6.73-21.95,10.15-35.43,10.28-1.36-1.72-3.18-3.32-5.46-4.79-5.67-3.66-12.44-5.49-20.31-5.49-4.09,0-8.1.36-12.05,1.05-.05-.03-.11-.06-.17-.09v.12c-15.49,2.74-29.85,10.79-43.08,24.16-13.45,13.54-23.24,35.67-29.36,66.41l-4.53,22.64h-5.21c-13.63,0-22.57,1.58-26.82,4.73-4.25,3.16-7.48,10.59-9.67,22.3,10.15-6.77,22.04-10.15,35.67-10.15h2.74l-.11.53c-6.56,9.97-14.28,20.44-23.19,31.44-12.8,15.73-23.06,26.5-30.78,32.31-7.72,5.81-15.61,8.71-23.65,8.71-17.18,0-37.29-18.2-60.33-54.61,9.87-9.79,22.55-19.16,38.05-28.13,15.49-8.96,27.72-13.95,36.68-14.96-5.39-12.26-10.24-18.39-14.53-18.39-7.13,0-19.15,6.77-36.06,20.31-16.91,13.54-32.59,29-47.03,46.38L607.2,0c-16.55,7.96-30.91,11.94-43.07,11.94-9.42,0-17.47-3.34-24.14-10.02-1.84,8.14-2.76,13.81-2.76,17.01,0,9.6,5.35,14.41,16.05,14.41,5.94,0,13.12-1.51,21.54-4.53l-13.83,69.67c-3.6-2.75-7.86-4.14-12.77-4.14-14.26,0-30.13,9.31-47.63,27.92-17.5,18.62-34.88,44.71-52.16,78.28l7.76-39.93c4.54-21.4,6.81-34.62,6.81-39.65,0-8.14-3.2-12.21-9.6-12.21-6.04,0-13.86,1.65-23.46,4.94,3.02,3.57,4.53,8,4.53,13.31,0,.78-.02,1.61-.05,2.46-9.18,4.21-17.86,6.32-26.02,6.32-16.46,0-32.29-5.17-47.47-15.5-14.82-21.04-33.39-32.47-55.71-34.3-3.02,4.03-4.53,8.23-4.53,12.62,0,2.84,1.14,6.31,3.43,10.43-3.48-.82-6.77-1.23-9.88-1.23-20.31,0-37.94,7.82-52.89,23.46-1.24,1.3-2.42,2.63-3.56,3.97,8.51-24.11,12.76-47.94,12.76-71.48,0-11.61-1.74-19.77-5.21-24.48-3.48-4.71-9.42-7.06-17.84-7.06-5.4,0-11.39.82-17.97,2.46,7.96,13.81,11.94,28.71,11.94,44.71,0,37.12-6.91,69.58-20.72,97.38-12.44,24.87-24.61,37.3-36.5,37.3-10.43,0-15.64-17.15-15.64-51.45l.14-9.33.41-15.64c0-14.18,1.83-36.13,5.49-65.86.46-3.11.69-5.72.69-7.82,0-7.22-3.8-10.84-11.39-10.84-1.37,0-3.98.41-7.82,1.23-.55.09-1.42.23-2.61.41-19.3,35.77-44.23,85.12-74.78,148.05-3.02-56.34-7.87-100.71-14.54-133.09-4.3-21.08-7.84-34.45-10.63-40.1-2.79-5.65-7.2-8.47-13.24-8.47-4.21,0-10.98,1.14-20.31,3.42,9.15,17.29,16.62,43.16,22.43,77.6,5.81,34.44,8.71,70.23,8.71,107.37,0,15.09-1.23,27.31-3.7,36.64,14.22-1.83,23.23-4.17,27.04-7s8.97-10.94,15.48-24.31l4.54-10.02c11.62-24.91,28.45-56.5,50.49-94.77-1.19,23.69-1.78,41.25-1.78,52.69,0,28.54,2.13,48.62,6.38,60.23,4.25,11.62,11.59,17.43,22.02,17.43,9.33,0,20.24-5.81,32.72-17.42,12.49-11.61,23.71-26.38,33.68-44.3.54-.96,1.06-1.93,1.58-2.89-.46,3.55-.7,7.18-.7,10.91,0,18.75,5.78,34.01,17.36,45.76,11.57,11.75,26.55,17.63,44.94,17.63,24.06,0,45.05-9.83,62.98-29.5,17.93-19.67,26.89-42.72,26.89-69.15,0-1.74-.14-3.7-.41-5.9,12.9,4.21,24.42,6.31,34.58,6.31,9.33,0,18.52-1.9,27.57-5.69-1.05,7.41-2.6,16.07-4.66,25.99l-6.86,34.17c-3.29,16.74-4.94,27.21-4.94,31.42,0,8.23,4.69,12.35,14.06,12.35,3.77,0,8.77-1.46,15.03-4.39l-.14-2.33c0-6.95,4.11-18.59,12.33-34.92,8.22-16.33,17.9-32.17,29.05-47.54,17.99-24.7,32.79-37.05,44.39-37.05,6.39,0,11.33,3.62,14.8,10.84,3.65-2.79,6.81-5.43,9.5-7.92l-14.17,71.37c-3.02,15.18-4.53,26.12-4.53,32.79,0,8.6,3.76,12.9,11.3,12.9,4.78,0,11.85-1.56,21.22-4.66-2.38-4.39-3.57-9.24-3.57-14.54,0-8.51,1.14-18.48,3.43-29.91l6.58-32.66c9.51,17.75,22.32,33.55,38.46,47.41,16.13,13.86,29.77,20.79,40.93,20.79,13.53,0,29.57-9.44,48.12-28.33,9.34-9.5,18.43-20.5,27.28-32.98l-16.62,83.27c-3.02,15.28-4.53,26.25-4.53,32.93,0,8.51,3.79,12.76,11.39,12.76,4.94,0,11.98-1.51,21.13-4.53-2.38-4.39-3.57-9.29-3.57-14.68,0-8.51,1.14-18.43,3.43-29.77l23.32-117.72h41.03c14.45,0,25.5-.38,33.16-1.13l-7.36,37.08c-2.74,13.72-4.12,24.33-4.12,31.83,0,13.36,3.29,24.17,9.88,32.45,6.59,8.28,15.23,12.42,25.93,12.42,14.73,0,31.65-10.22,50.77-30.67,5.22-5.59,10.44-11.77,15.65-18.51,2.26,12.4,7.62,22.92,16.12,31.55,11.57,11.75,26.55,17.63,44.94,17.63,24.06,0,45.05-9.83,62.98-29.5,17.93-19.67,26.89-42.72,26.89-69.15,0-1.74-.14-3.7-.41-5.9,12.9,4.21,24.42,6.31,34.58,6.31,9.45,0,18.76-1.95,27.93-5.83,6.16,24.78,9.25,49.96,9.25,75.54,0,10.7-1.15,20.08-3.43,28.13,18.39,0,33.39-7.82,45-23.46,11.8-16.01,22.87-35.72,33.2-59.14l-.96,31.97c0,35.12,10.38,52.69,31.15,52.69,18.39,0,35.26-14.27,50.63-42.81,17.56-32.75,26.34-61.61,26.34-86.58,0-17.01-5.5-25.52-16.51-25.52Zm-991.29,120.88c-11.15,15.59-24.46,23.39-39.92,23.4-11.44-.01-20.78-4.2-28.05-12.57-7.27-8.36-10.91-19.04-10.92-32.03.01-17.93,6.03-33.89,18.05-47.87,12.02-13.99,25.81-20.99,41.36-21,3.11.01,7,.52,11.66,1.51,6.4,5.03,13.4,8.69,20.99,10.98,2.36,7.04,3.55,14.32,3.57,21.82-.02,21.59-5.6,40.18-16.75,55.76Zm489.98-97.15h-47.89l6.04-30.46c8.96-45.19,23.83-67.78,44.59-67.78.46,0,.9.03,1.35.05,3.04,7.14,9.26,11.62,18.68,13.43.99,2.23,1.82,4.72,2.47,7.51,3.95-2.3,7.22-4.5,9.85-6.63,2.28-.09,4.84-.34,7.71-.78l-16.67,83.92c-7.52.49-16.23.74-26.14.74Zm219.79,90.89c-11.15,15.59-24.46,23.39-39.92,23.4-11.44-.01-20.79-4.2-28.05-12.57-7.27-8.36-10.91-19.04-10.92-32.03.01-17.93,6.03-33.89,18.05-47.87,12.02-13.99,25.8-20.99,41.36-21,3.11.01,7,.52,11.66,1.51,6.4,5.03,13.4,8.69,20.99,10.98,2.36,7.04,3.55,14.32,3.57,21.82-.02,21.59-5.6,40.18-16.75,55.76Z"/>
</svg>