<svg id="visual" viewBox="0 0 960 300" width="960" height="300" xmlns="http://www.w3.org/2000/svg" xmlns:xlink="http://www.w3.org/1999/xlink" version="1.1"><rect x="0" y="0" width="960" height="300" fill="#000106"></rect><path d="M0 202L22.8 204C45.7 206 91.3 210 137 205.2C182.7 200.3 228.3 186.7 274 190.7C319.7 194.7 365.3 216.3 411.2 215.8C457 215.3 503 192.7 548.8 191.7C594.7 190.7 640.3 211.3 686 212.8C731.7 214.3 777.3 196.7 823 188.3C868.7 180 914.3 181 937.2 181.5L960 182L960 0L937.2 0C914.3 0 868.7 0 823 0C777.3 0 731.7 0 686 0C640.3 0 594.7 0 548.8 0C503 0 457 0 411.2 0C365.3 0 319.7 0 274 0C228.3 0 182.7 0 137 0C91.3 0 45.7 0 22.8 0L0 0Z" fill="#715df2"></path><path d="M0 156L22.8 158.3C45.7 160.7 91.3 165.3 137 159.5C182.7 153.7 228.3 137.3 274 136.3C319.7 135.3 365.3 149.7 411.2 161C457 172.3 503 180.7 548.8 173.3C594.7 166 640.3 143 686 132.8C731.7 122.7 777.3 125.3 823 131.2C868.7 137 914.3 146 937.2 150.5L960 155L960 0L937.2 0C914.3 0 868.7 0 823 0C777.3 0 731.7 0 686 0C640.3 0 594.7 0 548.8 0C503 0 457 0 411.2 0C365.3 0 319.7 0 274 0C228.3 0 182.7 0 137 0C91.3 0 45.7 0 22.8 0L0 0Z" fill="#6c50f6"></path><path d="M0 144L22.8 138.2C45.7 132.3 91.3 120.7 137 113C182.7 105.3 228.3 101.7 274 109C319.7 116.3 365.3 134.7 411.2 139.5C457 144.3 503 135.7 548.8 131.3C594.7 127 640.3 127 686 131.3C731.7 135.7 777.3 144.3 823 146.3C868.7 148.3 914.3 143.7 937.2 141.3L960 139L960 0L937.2 0C914.3 0 868.7 0 823 0C777.3 0 731.7 0 686 0C640.3 0 594.7 0 548.8 0C503 0 457 0 411.2 0C365.3 0 319.7 0 274 0C228.3 0 182.7 0 137 0C91.3 0 45.7 0 22.8 0L0 0Z" fill="#6940fa"></path><path d="M0 75L22.8 74C45.7 73 91.3 71 137 73.2C182.7 75.3 228.3 81.7 274 85.2C319.7 88.7 365.3 89.3 411.2 84.3C457 79.3 503 68.7 548.8 69.8C594.7 71 640.3 84 686 88.3C731.7 92.7 777.3 88.3 823 90.5C868.7 92.7 914.3 101.3 937.2 105.7L960 110L960 0L937.2 0C914.3 0 868.7 0 823 0C777.3 0 731.7 0 686 0C640.3 0 594.7 0 548.8 0C503 0 457 0 411.2 0C365.3 0 319.7 0 274 0C228.3 0 182.7 0 137 0C91.3 0 45.7 0 22.8 0L0 0Z" fill="#672bfd"></path><path d="M0 69L22.8 64.8C45.7 60.7 91.3 52.3 137 45C182.7 37.7 228.3 31.3 274 35.7C319.7 40 365.3 55 411.2 62.8C457 70.7 503 71.3 548.8 69.3C594.7 67.3 640.3 62.7 686 61.8C731.7 61 777.3 64 823 63.2C868.7 62.3 914.3 57.7 937.2 55.3L960 53L960 0L937.2 0C914.3 0 868.7 0 823 0C777.3 0 731.7 0 686 0C640.3 0 594.7 0 548.8 0C503 0 457 0 411.2 0C365.3 0 319.7 0 274 0C228.3 0 182.7 0 137 0C91.3 0 45.7 0 22.8 0L0 0Z" fill="#6600ff"></path></svg>