<svg id="visual" viewBox="0 0 1920 1080" width="1920" height="1080" xmlns="http://www.w3.org/2000/svg" xmlns:xlink="http://www.w3.org/1999/xlink" version="1.1"><path d="M0 174L32 179.3C64 184.7 128 195.3 192 182.7C256 170 320 134 384 125C448 116 512 134 576 137.7C640 141.3 704 130.7 768 119.8C832 109 896 98 960 98C1024 98 1088 109 1152 109C1216 109 1280 98 1344 99.8C1408 101.7 1472 116.3 1536 136.2C1600 156 1664 181 1728 175.5C1792 170 1856 134 1888 116L1920 98L1920 0L1888 0C1856 0 1792 0 1728 0C1664 0 1600 0 1536 0C1472 0 1408 0 1344 0C1280 0 1216 0 1152 0C1088 0 1024 0 960 0C896 0 832 0 768 0C704 0 640 0 576 0C512 0 448 0 384 0C320 0 256 0 192 0C128 0 64 0 32 0L0 0Z" fill="#5c7cf2"></path><path d="M0 282L32 300C64 318 128 354 192 348.5C256 343 320 296 384 281.5C448 267 512 285 576 274.3C640 263.7 704 224.3 768 206.3C832 188.3 896 191.7 960 204.2C1024 216.7 1088 238.3 1152 233C1216 227.7 1280 195.3 1344 193.5C1408 191.7 1472 220.3 1536 251C1600 281.7 1664 314.3 1728 316.2C1792 318 1856 289 1888 274.5L1920 260L1920 96L1888 114C1856 132 1792 168 1728 173.5C1664 179 1600 154 1536 134.2C1472 114.3 1408 99.7 1344 97.8C1280 96 1216 107 1152 107C1088 107 1024 96 960 96C896 96 832 107 768 117.8C704 128.7 640 139.3 576 135.7C512 132 448 114 384 123C320 132 256 168 192 180.7C128 193.3 64 182.7 32 177.3L0 172Z" fill="#4b6bf8"></path><path d="M0 465L32 490.3C64 515.7 128 566.3 192 552C256 537.7 320 458.3 384 422.3C448 386.3 512 393.7 576 404.5C640 415.3 704 429.7 768 447.7C832 465.7 896 487.3 960 489.2C1024 491 1088 473 1152 453.2C1216 433.3 1280 411.7 1344 422.3C1408 433 1472 476 1536 495.8C1600 515.7 1664 512.3 1728 517.8C1792 523.3 1856 537.7 1888 544.8L1920 552L1920 258L1888 272.5C1856 287 1792 316 1728 314.2C1664 312.3 1600 279.7 1536 249C1472 218.3 1408 189.7 1344 191.5C1280 193.3 1216 225.7 1152 231C1088 236.3 1024 214.7 960 202.2C896 189.7 832 186.3 768 204.3C704 222.3 640 261.7 576 272.3C512 283 448 265 384 279.5C320 294 256 341 192 346.5C128 352 64 316 32 298L0 280Z" fill="#3d59fd"></path><path d="M0 768L32 795C64 822 128 876 192 847.2C256 818.3 320 706.7 384 685C448 663.3 512 731.7 576 756.8C640 782 704 764 768 758.7C832 753.3 896 760.7 960 764.3C1024 768 1088 768 1152 755.3C1216 742.7 1280 717.3 1344 699.3C1408 681.3 1472 670.7 1536 672.5C1600 674.3 1664 688.7 1728 695.8C1792 703 1856 703 1888 703L1920 703L1920 550L1888 542.8C1856 535.7 1792 521.3 1728 515.8C1664 510.3 1600 513.7 1536 493.8C1472 474 1408 431 1344 420.3C1280 409.7 1216 431.3 1152 451.2C1088 471 1024 489 960 487.2C896 485.3 832 463.7 768 445.7C704 427.7 640 413.3 576 402.5C512 391.7 448 384.3 384 420.3C320 456.3 256 535.7 192 550C128 564.3 64 513.7 32 488.3L0 463Z" fill="#3643ff"></path><path d="M0 1081L32 1081C64 1081 128 1081 192 1081C256 1081 320 1081 384 1081C448 1081 512 1081 576 1081C640 1081 704 1081 768 1081C832 1081 896 1081 960 1081C1024 1081 1088 1081 1152 1081C1216 1081 1280 1081 1344 1081C1408 1081 1472 1081 1536 1081C1600 1081 1664 1081 1728 1081C1792 1081 1856 1081 1888 1081L1920 1081L1920 701L1888 701C1856 701 1792 701 1728 693.8C1664 686.7 1600 672.3 1536 670.5C1472 668.7 1408 679.3 1344 697.3C1280 715.3 1216 740.7 1152 753.3C1088 766 1024 766 960 762.3C896 758.7 832 751.3 768 756.7C704 762 640 780 576 754.8C512 729.7 448 661.3 384 683C320 704.7 256 816.3 192 845.2C128 874 64 820 32 793L0 766Z" fill="#3925ff"></path></svg>