<svg id="visual" viewBox="0 0 960 100" width="960" height="100" xmlns="http://www.w3.org/2000/svg" xmlns:xlink="http://www.w3.org/1999/xlink" version="1.1"><path d="M0 31L22.8 29.7C45.7 28.3 91.3 25.7 137 31C182.7 36.3 228.3 49.7 274 56.5C319.7 63.3 365.3 63.7 411.2 60.2C457 56.7 503 49.3 548.8 48C594.7 46.7 640.3 51.3 686 52.3C731.7 53.3 777.3 50.7 823 46.2C868.7 41.7 914.3 35.3 937.2 32.2L960 29L960 0L937.2 0C914.3 0 868.7 0 823 0C777.3 0 731.7 0 686 0C640.3 0 594.7 0 548.8 0C503 0 457 0 411.2 0C365.3 0 319.7 0 274 0C228.3 0 182.7 0 137 0C91.3 0 45.7 0 22.8 0L0 0Z" fill="#4745e2" stroke-linecap="round" stroke-linejoin="miter"></path></svg>