<svg id="visual" viewBox="0 0 960 300" width="960" height="300" xmlns="http://www.w3.org/2000/svg" xmlns:xlink="http://www.w3.org/1999/xlink" version="1.1"><path d="M0 173L22.8 175.3C45.7 177.7 91.3 182.3 137 179C182.7 175.7 228.3 164.3 274 163C319.7 161.7 365.3 170.3 411.2 174.7C457 179 503 179 548.8 174.2C594.7 169.3 640.3 159.7 686 159.3C731.7 159 777.3 168 823 169.5C868.7 171 914.3 165 937.2 162L960 159L960 301L937.2 301C914.3 301 868.7 301 823 301C777.3 301 731.7 301 686 301C640.3 301 594.7 301 548.8 301C503 301 457 301 411.2 301C365.3 301 319.7 301 274 301C228.3 301 182.7 301 137 301C91.3 301 45.7 301 22.8 301L0 301Z" fill="#715df2"></path><path d="M0 220L22.8 210.8C45.7 201.7 91.3 183.3 137 174.8C182.7 166.3 228.3 167.7 274 176C319.7 184.3 365.3 199.7 411.2 201.5C457 203.3 503 191.7 548.8 188.8C594.7 186 640.3 192 686 196.2C731.7 200.3 777.3 202.7 823 205.5C868.7 208.3 914.3 211.7 937.2 213.3L960 215L960 301L937.2 301C914.3 301 868.7 301 823 301C777.3 301 731.7 301 686 301C640.3 301 594.7 301 548.8 301C503 301 457 301 411.2 301C365.3 301 319.7 301 274 301C228.3 301 182.7 301 137 301C91.3 301 45.7 301 22.8 301L0 301Z" fill="#6b4bf8"></path><path d="M0 216L22.8 219C45.7 222 91.3 228 137 227.3C182.7 226.7 228.3 219.3 274 218.8C319.7 218.3 365.3 224.7 411.2 225.7C457 226.7 503 222.3 548.8 223.3C594.7 224.3 640.3 230.7 686 233C731.7 235.3 777.3 233.7 823 232C868.7 230.3 914.3 228.7 937.2 227.8L960 227L960 301L937.2 301C914.3 301 868.7 301 823 301C777.3 301 731.7 301 686 301C640.3 301 594.7 301 548.8 301C503 301 457 301 411.2 301C365.3 301 319.7 301 274 301C228.3 301 182.7 301 137 301C91.3 301 45.7 301 22.8 301L0 301Z" fill="#6733fc"></path><path d="M0 256L22.8 258C45.7 260 91.3 264 137 264.7C182.7 265.3 228.3 262.7 274 257.8C319.7 253 365.3 246 411.2 246.2C457 246.3 503 253.7 548.8 256C594.7 258.3 640.3 255.7 686 256C731.7 256.3 777.3 259.7 823 261.7C868.7 263.7 914.3 264.3 937.2 264.7L960 265L960 301L937.2 301C914.3 301 868.7 301 823 301C777.3 301 731.7 301 686 301C640.3 301 594.7 301 548.8 301C503 301 457 301 411.2 301C365.3 301 319.7 301 274 301C228.3 301 182.7 301 137 301C91.3 301 45.7 301 22.8 301L0 301Z" fill="#6600ff"></path></svg>