<svg id="visual" viewBox="0 0 900 300" width="900" height="300" xmlns="http://www.w3.org/2000/svg" xmlns:xlink="http://www.w3.org/1999/xlink" version="1.1"><rect x="0" y="0" width="900" height="300" fill="#000106"></rect><path d="M0 96L21.5 96C43 96 86 96 128.8 96.3C171.7 96.7 214.3 97.3 257.2 104.8C300 112.3 343 126.7 385.8 133.7C428.7 140.7 471.3 140.3 514.2 140.8C557 141.3 600 142.7 642.8 142.2C685.7 141.7 728.3 139.3 771.2 137.8C814 136.3 857 135.7 878.5 135.3L900 135L900 0L878.5 0C857 0 814 0 771.2 0C728.3 0 685.7 0 642.8 0C600 0 557 0 514.2 0C471.3 0 428.7 0 385.8 0C343 0 300 0 257.2 0C214.3 0 171.7 0 128.8 0C86 0 43 0 21.5 0L0 0Z" fill="#715df2"></path><path d="M0 92L21.5 89.8C43 87.7 86 83.3 128.8 89C171.7 94.7 214.3 110.3 257.2 116C300 121.7 343 117.3 385.8 109.2C428.7 101 471.3 89 514.2 88C557 87 600 97 642.8 105.3C685.7 113.7 728.3 120.3 771.2 116.5C814 112.7 857 98.3 878.5 91.2L900 84L900 0L878.5 0C857 0 814 0 771.2 0C728.3 0 685.7 0 642.8 0C600 0 557 0 514.2 0C471.3 0 428.7 0 385.8 0C343 0 300 0 257.2 0C214.3 0 171.7 0 128.8 0C86 0 43 0 21.5 0L0 0Z" fill="#6d52f6"></path><path d="M0 64L21.5 66.3C43 68.7 86 73.3 128.8 78.2C171.7 83 214.3 88 257.2 89.7C300 91.3 343 89.7 385.8 90C428.7 90.3 471.3 92.7 514.2 95C557 97.3 600 99.7 642.8 97.3C685.7 95 728.3 88 771.2 85.7C814 83.3 857 85.7 878.5 86.8L900 88L900 0L878.5 0C857 0 814 0 771.2 0C728.3 0 685.7 0 642.8 0C600 0 557 0 514.2 0C471.3 0 428.7 0 385.8 0C343 0 300 0 257.2 0C214.3 0 171.7 0 128.8 0C86 0 43 0 21.5 0L0 0Z" fill="#6a47f9"></path><path d="M0 53L21.5 56.5C43 60 86 67 128.8 68.3C171.7 69.7 214.3 65.3 257.2 61C300 56.7 343 52.3 385.8 51.8C428.7 51.3 471.3 54.7 514.2 56.7C557 58.7 600 59.3 642.8 58.2C685.7 57 728.3 54 771.2 55.7C814 57.3 857 63.7 878.5 66.8L900 70L900 0L878.5 0C857 0 814 0 771.2 0C728.3 0 685.7 0 642.8 0C600 0 557 0 514.2 0C471.3 0 428.7 0 385.8 0C343 0 300 0 257.2 0C214.3 0 171.7 0 128.8 0C86 0 43 0 21.5 0L0 0Z" fill="#6839fb"></path><path d="M0 45L21.5 43.5C43 42 86 39 128.8 37.2C171.7 35.3 214.3 34.7 257.2 34.2C300 33.7 343 33.3 385.8 35.8C428.7 38.3 471.3 43.7 514.2 47.2C557 50.7 600 52.3 642.8 53C685.7 53.7 728.3 53.3 771.2 52.5C814 51.7 857 50.3 878.5 49.7L900 49L900 0L878.5 0C857 0 814 0 771.2 0C728.3 0 685.7 0 642.8 0C600 0 557 0 514.2 0C471.3 0 428.7 0 385.8 0C343 0 300 0 257.2 0C214.3 0 171.7 0 128.8 0C86 0 43 0 21.5 0L0 0Z" fill="#6626fd"></path><path d="M0 15L21.5 16.3C43 17.7 86 20.3 128.8 20C171.7 19.7 214.3 16.3 257.2 18C300 19.7 343 26.3 385.8 26.8C428.7 27.3 471.3 21.7 514.2 20.3C557 19 600 22 642.8 21.7C685.7 21.3 728.3 17.7 771.2 18.7C814 19.7 857 25.3 878.5 28.2L900 31L900 0L878.5 0C857 0 814 0 771.2 0C728.3 0 685.7 0 642.8 0C600 0 557 0 514.2 0C471.3 0 428.7 0 385.8 0C343 0 300 0 257.2 0C214.3 0 171.7 0 128.8 0C86 0 43 0 21.5 0L0 0Z" fill="#6600ff"></path></svg>