<svg id="visual" viewBox="0 0 900 300" width="900" height="300" xmlns="http://www.w3.org/2000/svg" xmlns:xlink="http://www.w3.org/1999/xlink" version="1.1"><path d="M0 215L21.5 217.3C43 219.7 86 224.3 128.8 226.2C171.7 228 214.3 227 257.2 223.2C300 219.3 343 212.7 385.8 211.3C428.7 210 471.3 214 514.2 217.5C557 221 600 224 642.8 221.2C685.7 218.3 728.3 209.7 771.2 205.3C814 201 857 201 878.5 201L900 201L900 301L878.5 301C857 301 814 301 771.2 301C728.3 301 685.7 301 642.8 301C600 301 557 301 514.2 301C471.3 301 428.7 301 385.8 301C343 301 300 301 257.2 301C214.3 301 171.7 301 128.8 301C86 301 43 301 21.5 301L0 301Z" fill="#715df2"></path><path d="M0 236L21.5 238C43 240 86 244 128.8 243.7C171.7 243.3 214.3 238.7 257.2 235.3C300 232 343 230 385.8 228.5C428.7 227 471.3 226 514.2 225.7C557 225.3 600 225.7 642.8 229.7C685.7 233.7 728.3 241.3 771.2 244.5C814 247.7 857 246.3 878.5 245.7L900 245L900 301L878.5 301C857 301 814 301 771.2 301C728.3 301 685.7 301 642.8 301C600 301 557 301 514.2 301C471.3 301 428.7 301 385.8 301C343 301 300 301 257.2 301C214.3 301 171.7 301 128.8 301C86 301 43 301 21.5 301L0 301Z" fill="#6c50f6"></path><path d="M0 260L21.5 255.7C43 251.3 86 242.7 128.8 239C171.7 235.3 214.3 236.7 257.2 237C300 237.3 343 236.7 385.8 239.7C428.7 242.7 471.3 249.3 514.2 250.8C557 252.3 600 248.7 642.8 246.5C685.7 244.3 728.3 243.7 771.2 244.8C814 246 857 249 878.5 250.5L900 252L900 301L878.5 301C857 301 814 301 771.2 301C728.3 301 685.7 301 642.8 301C600 301 557 301 514.2 301C471.3 301 428.7 301 385.8 301C343 301 300 301 257.2 301C214.3 301 171.7 301 128.8 301C86 301 43 301 21.5 301L0 301Z" fill="#6940fa"></path><path d="M0 274L21.5 271.3C43 268.7 86 263.3 128.8 261.7C171.7 260 214.3 262 257.2 262.7C300 263.3 343 262.7 385.8 261.5C428.7 260.3 471.3 258.7 514.2 257.5C557 256.3 600 255.7 642.8 256.5C685.7 257.3 728.3 259.7 771.2 260.8C814 262 857 262 878.5 262L900 262L900 301L878.5 301C857 301 814 301 771.2 301C728.3 301 685.7 301 642.8 301C600 301 557 301 514.2 301C471.3 301 428.7 301 385.8 301C343 301 300 301 257.2 301C214.3 301 171.7 301 128.8 301C86 301 43 301 21.5 301L0 301Z" fill="#672bfd"></path><path d="M0 277L21.5 278C43 279 86 281 128.8 279.8C171.7 278.7 214.3 274.3 257.2 273.8C300 273.3 343 276.7 385.8 278.3C428.7 280 471.3 280 514.2 278.7C557 277.3 600 274.7 642.8 273.5C685.7 272.3 728.3 272.7 771.2 274.5C814 276.3 857 279.7 878.5 281.3L900 283L900 301L878.5 301C857 301 814 301 771.2 301C728.3 301 685.7 301 642.8 301C600 301 557 301 514.2 301C471.3 301 428.7 301 385.8 301C343 301 300 301 257.2 301C214.3 301 171.7 301 128.8 301C86 301 43 301 21.5 301L0 301Z" fill="#6600ff"></path></svg>