<?xml version="1.0" encoding="UTF-8"?>
<svg id="Layer_1" data-name="Layer 1" xmlns="http://www.w3.org/2000/svg" viewBox="0 0 2048 2048">
  <defs>
    <style>
      .cls-1 {
        stroke-width: .75px;
      }

      .cls-1, .cls-2 {
        fill: #b782d0;
        stroke: #b782d0;
      }

      .cls-1, .cls-2, .cls-3, .cls-4, .cls-5, .cls-6, .cls-7 {
        stroke-miterlimit: 11.34;
      }

      .cls-2 {
        stroke-width: .75px;
      }

      .cls-2, .cls-6 {
        font-family: PlayfairDisplay-Regular, 'Playfair Display';
        font-size: 450px;
      }

      .cls-3, .cls-4, .cls-5, .cls-7 {
        stroke-width: .75px;
      }

      .cls-3, .cls-6 {
        fill: #d9b9e9;
        stroke: #d9b9e9;
      }

      .cls-4 {
        fill: #c7a0d9;
        stroke: #c7a0d9;
      }

      .cls-5 {
        fill: #fff;
        stroke: #fff;
      }

      .cls-6 {
        stroke-width: .75px;
      }

      .cls-7 {
        fill: #b98fcd;
        stroke: #b98fcd;
      }
    </style>
  </defs>
  <g id="layer7">
    <g id="layer4">
      <path id="path6045" class="cls-4" d="m1360.85,1050.33s1.07-19.6,6.29-26.2,18.34-14.68,18.34-14.68l285.13,52.57-26.41-139.42,239.8-114.2-235.64-172.04,57.93-115.04-562.26-24.77,216.83,553.77Z"/>
    </g>
    <g id="layer3">
      <path id="path1805" class="cls-1" d="m1128.33,1139.3l232.53-88.97,370.05,336.61-178.46,18.99s-9.4,1.3-14.49,9.98c-5.3,9.05-2.87,22.49-2.87,22.49l54.91,324.2-461.67-623.3Z"/>
    </g>
    <g id="layer5">
      <path id="path6838" class="cls-3" d="m1360.49,1048.9l-266.68-715.58-278.97,287.88s-14.24,9.59-20.14,10.24c-6.62.74-23-9.17-23-9.17l-12.09,23.04,368.14,493.21,232.75-89.62Z"/>
    </g>
    <g id="layer6">
      <path id="path8682" class="cls-7" d="m769.55,620.43l-11.55,22.76-248.52-332.15,35.05-26.04,225.01,335.43Z"/>
    </g>
  </g>
  <g id="layer14">
    <path id="path18577" class="cls-5" d="m1094.32,1013.74l-2.68,24.96s.4,4.28-4.75,7.7c-5.15,3.42-9.03,3.62-9.03,3.62l-259.66-29.11s-5.36-.68-9.87-3.99c-5.15-3.77-4.81-10.78-4.81-10.78l2.78-22.9s.3-6.17,4.89-8.92c4.59-2.75,14.61-2.09,14.61-2.09l256.35,29.18s4.04.21,8.26,4c4.22,3.79,3.92,8.32,3.92,8.32h0Z"/>
    <path id="path19163" class="cls-5" d="m1077,979.4l-245.7-27.09c.09-35.96-20.53-95.43-20.53-95.43-9.51-26.06-28.67-53.94-28.67-53.94-10.48-16.08-23.26-31.47-23.26-31.47l239.2-264.79-28.14,232.82,18.35,2.56,29.04-233.13,172.47,310.1s-36.16,28.31-49.39,45.44c0,0-25.39,29.61-38.54,54.26-22.13,41.3-24.82,60.67-24.82,60.67h0Z"/>
    <circle id="path23010" class="cls-3" cx="970.56" cy="790.24" r="63.06"/>
    <path id="path32861" class="cls-3" d="m988.76,726.55l1.1,14.44-13.31,5.28-9.33-11.18,7.55-12.19,13.99,3.64Z"/>
    <text class="cls-6" transform="translate(164 1137.48)"><tspan x="0" y="0">MPL</tspan></text>
    <text class="cls-2" transform="translate(560 1470.57)"><tspan x="0" y="0">INK</tspan></text>
  </g>
</svg>