<svg id="visual" viewBox="0 0 960 100" width="960" height="100" xmlns="http://www.w3.org/2000/svg" xmlns:xlink="http://www.w3.org/1999/xlink" version="1.1"><path d="M0 62L22.8 59C45.7 56 91.3 50 137 46.2C182.7 42.3 228.3 40.7 274 43.7C319.7 46.7 365.3 54.3 411.2 54.7C457 55 503 48 548.8 44.5C594.7 41 640.3 41 686 45C731.7 49 777.3 57 823 59.3C868.7 61.7 914.3 58.3 937.2 56.7L960 55L960 101L937.2 101C914.3 101 868.7 101 823 101C777.3 101 731.7 101 686 101C640.3 101 594.7 101 548.8 101C503 101 457 101 411.2 101C365.3 101 319.7 101 274 101C228.3 101 182.7 101 137 101C91.3 101 45.7 101 22.8 101L0 101Z" fill="#4745e2" stroke-linecap="round" stroke-linejoin="miter"></path></svg>