<?xml version="1.0" encoding="UTF-8"?>
<svg id="Layer_1" data-name="Layer 1" xmlns="http://www.w3.org/2000/svg" viewBox="0 0 98.26 98.42">
  <defs>
    <style>
      .cls-1 {
        font-family: PlayfairDisplay-Italic, 'Playfair Display';
        font-size: 13.71px;
        font-style: italic;
      }
    </style>
  </defs>
  <text class="cls-1" transform="translate(49.38 11.44) rotate(7.2)"><tspan x="0" y="0">T</tspan></text>
  <text class="cls-1" transform="translate(56.36 12.23) rotate(16.52)"><tspan x="0" y="0">a</tspan></text>
  <text class="cls-1" transform="translate(62.86 14.13) rotate(26.82)"><tspan x="0" y="0">k</tspan></text>
  <text class="cls-1" transform="translate(68.81 17.16) rotate(36.1)"><tspan x="0" y="0">e</tspan></text>
  <text class="cls-1" transform="translate(73.31 20.5) rotate(42.78)"><tspan x="0" y="0"> </tspan></text>
  <text class="cls-1" transform="translate(75.73 22.55) rotate(50.38)"><tspan x="0" y="0">a</tspan></text>
  <text class="cls-1" transform="translate(80.02 27.88) rotate(57.98)"><tspan x="0" y="0"> </tspan></text>
  <text class="cls-1" transform="translate(81.76 30.64) rotate(63.23)"><tspan x="0" y="0">l</tspan></text>
  <text class="cls-1" transform="translate(83.43 33.7) rotate(70.77)"><tspan x="0" y="0">o</tspan></text>
  <text class="cls-1" transform="translate(85.54 39.65) rotate(80.46)"><tspan x="0" y="0">o</tspan></text>
  <text class="cls-1" transform="translate(86.67 45.83) rotate(90.93)"><tspan x="0" y="0">k</tspan></text>
  <text class="cls-1" transform="translate(86.5 52.62) rotate(97.79)"><tspan x="0" y="0"> </tspan></text>
  <text class="cls-1" transform="translate(86.22 55.77) rotate(105.45)"><tspan x="0" y="0">a</tspan></text>
  <text class="cls-1" transform="translate(84.39 62.3) rotate(114.85)"><tspan x="0" y="0">r</tspan></text>
  <text class="cls-1" transform="translate(82.26 67.08) rotate(123.48)"><tspan x="0" y="0">o</tspan></text>
  <text class="cls-1" transform="translate(78.88 72.36) rotate(133.8)"><tspan x="0" y="0">u</tspan></text>
  <text class="cls-1" transform="translate(73.83 77.69) rotate(145.06)"><tspan x="0" y="0">n</tspan></text>
  <text class="cls-1" transform="translate(67.69 82.01) rotate(156.11)"><tspan x="0" y="0">d</tspan></text>
  <text class="cls-1" transform="translate(61.13 84.78) rotate(164.01)"><tspan x="0" y="0"> </tspan></text>
  <text class="cls-1" transform="translate(58.1 85.75) rotate(170.91)"><tspan x="0" y="0">•</tspan></text>
  <text class="cls-1" transform="translate(52.33 86.61) rotate(177.78)"><tspan x="0" y="0"> </tspan></text>
  <text class="cls-1" transform="translate(49.21 86.98) rotate(-173.34)"><tspan x="0" y="0">T</tspan></text>
  <text class="cls-1" transform="translate(42.24 86.25) rotate(-164.05)"><tspan x="0" y="0">a</tspan></text>
  <text class="cls-1" transform="translate(35.72 84.42) rotate(-153.75)"><tspan x="0" y="0">k</tspan></text>
  <text class="cls-1" transform="translate(29.73 81.45) rotate(-144.45)"><tspan x="0" y="0">e</tspan></text>
  <text class="cls-1" transform="translate(25.21 78.15) rotate(-137.78)"><tspan x="0" y="0"> </tspan></text>
  <text class="cls-1" transform="translate(22.76 76.13) rotate(-130.17)"><tspan x="0" y="0">a</tspan></text>
  <text class="cls-1" transform="translate(18.43 70.84) rotate(-122.58)"><tspan x="0" y="0"> </tspan></text>
  <text class="cls-1" transform="translate(16.66 68.09) rotate(-117.34)"><tspan x="0" y="0">l</tspan></text>
  <text class="cls-1" transform="translate(14.95 65.04) rotate(-109.76)"><tspan x="0" y="0">o</tspan></text>
  <text class="cls-1" transform="translate(12.78 59.11) rotate(-100.08)"><tspan x="0" y="0">o</tspan></text>
  <text class="cls-1" transform="translate(11.67 52.95) rotate(-90.93)"><tspan x="0" y="0">k</tspan></text>
  <text class="cls-1" transform="translate(11.7 46.18) rotate(-82.8)"><tspan x="0" y="0"> </tspan></text>
  <text class="cls-1" transform="translate(11.95 43.02) rotate(-75.12)"><tspan x="0" y="0">a</tspan></text>
  <text class="cls-1" transform="translate(13.72 36.47) rotate(-65.71)"><tspan x="0" y="0">r</tspan></text>
  <text class="cls-1" transform="translate(15.8 31.66) rotate(-57.08)"><tspan x="0" y="0">o</tspan></text>
  <text class="cls-1" transform="translate(19.13 26.35) rotate(-46.75)"><tspan x="0" y="0">u</tspan></text>
  <text class="cls-1" transform="translate(24.13 20.97) rotate(-35.5)"><tspan x="0" y="0">n</tspan></text>
  <text class="cls-1" transform="translate(30.25 16.58) rotate(-24.42)"><tspan x="0" y="0">d</tspan></text>
  <text class="cls-1" transform="translate(36.74 13.76) rotate(-16.57)"><tspan x="0" y="0"> </tspan></text>
  <text class="cls-1" transform="translate(39.79 12.75) rotate(-9.63)"><tspan x="0" y="0">•</tspan></text>
  <text class="cls-1" transform="translate(45.51 11.84) rotate(-2.81)"><tspan x="0" y="0"> </tspan></text>
</svg>